<?xml version="1.0" encoding="utf-8"?>
<!-- Generator: Adobe Illustrator 24.2.3, SVG Export Plug-In . SVG Version: 6.00 Build 0)  -->
<svg version="1.1" id="Layer_1" xmlns="http://www.w3.org/2000/svg" xmlns:xlink="http://www.w3.org/1999/xlink" x="0px" y="0px"
	 viewBox="0 0 1216 420" style="enable-background:new 0 0 1216 420;" xml:space="preserve">
<style type="text/css">
	.st0{fill:#FFFFFF;}
</style>
<g id="wKllMn.tif">
	<g>
		<g>
			<path d="M202.93,358.32c-4.6,0-6.09-4.34-6.73-6.2c-2.21-6.43-4.6-12.93-6.91-19.22c-2.32-6.31-4.73-12.84-6.95-19.32
				c-1.15-3.37-1.88-3.37-2.89-3.37c-0.62,0-1.41,0.12-2.37,0.35c-15.6,3.8-31.11,5.73-46.09,5.73
				c-37.11,0-72.73-11.81-105.86-35.09c-6.67-4.69-15.33-12.44-13.59-25.62c1.63-12.38,11.65-21.37,23.83-21.37
				c5.5,0,10.85,1.86,15.48,5.37c16.51,12.56,34.62,20.98,53.8,25.03c8.96,1.89,18.16,2.86,27.35,2.86c9.83,0,19.95-1.1,30.09-3.27
				c1.21-0.26,1.63-0.5,1.75-0.59c0.01-0.14,0-0.6-0.36-1.57c-9.56-25.88-17.42-47.53-24.73-68.12c-0.68-1.93-1.34-2.12-3.85-2.12
				l-1.3,0.01c-24.67,0-45.9-14.29-54.08-36.4c-10.72-28.95,3.41-60.54,32.16-71.91c3.42-1.35,4.67-3.99,3.51-7.42
				c-0.04-0.13-0.08-0.2-0.1-0.23c0,0-0.01,0-0.01,0c-0.04,0-0.15-0.02-0.35-0.02c0,0-0.42,0.01-0.56,0.01
				c-1.84,0-3.3-0.53-4.35-1.59c-1.55-1.55-1.72-3.8-1.71-5.35c0.02-4.65,0.01-9.3-0.01-13.96c-0.02-7.88-0.05-16.04,0.12-24.07
				c0.2-9.84,7.71-17.28,17.83-17.69c1.59-0.06,3.3-0.1,5.22-0.1c2.14,0,4.29,0.04,6.43,0.08c10.7,0.21,18.69,8.15,18.99,18.89
				c0.12,4.18,0.09,8.42,0.06,12.51c-0.01,1.19-0.02,2.38-0.02,3.57l0.02,1.98l0,5.26c0,4.41,0.01,8.83-0.01,13.24
				c-0.01,1.93-0.03,7.05-5.61,7.13c-1.04,0.02-1.31,0.23-1.32,0.24l0,0c0,0-0.13,0.23-0.07,0.98c0.07,0.86,0.03,1.68-0.01,2.47
				c-0.14,2.58-0.01,2.9,1.39,3.37c3.89,1.33,7.69,3.19,11.29,5.53c24.79,16.08,33.14,46.73,19.85,72.88
				c-1.57,3.08-1.69,5.47-0.47,8.82c17.4,47.51,34.99,95.85,52,142.6l7.89,21.67c2.93,8.05,2.25,9.45-6.08,12.51
				c-2.83,1.04-5.66,2.06-8.49,3.08c-6.6,2.38-13.42,4.84-20.03,7.47C205.48,358.01,204.13,358.32,202.93,358.32z M132.32,106.79
				c-16.07,0-28.68,12.67-28.71,28.84c-0.02,7.72,2.96,14.96,8.37,20.39c5.36,5.37,12.48,8.32,20.07,8.32
				c16.27-0.01,29.06-12.62,29.14-28.72c0.07-15.52-13.05-28.72-28.65-28.84L132.32,106.79z"/>
			<path class="st0" d="M131.27,15.59c2.13,0,4.25,0.04,6.38,0.08c9.4,0.18,16.27,6.94,16.54,16.46c0.17,5.99,0.03,11.99,0.03,17.99
				c0.01,0,0.01,0,0.02,0c0,6.16,0.01,12.33-0.01,18.49c-0.01,2.23-0.04,4.6-3.15,4.64c-2.7,0.04-4.08,1.16-3.85,3.93
				c0.25,2.95-1.29,6.51,3.06,8c3.78,1.3,7.35,3.06,10.74,5.26c23.78,15.43,31.81,44.4,18.98,69.65c-1.93,3.79-2.01,6.91-0.59,10.81
				c20.04,54.73,39.95,109.5,59.88,164.27c2.45,6.72,2.41,6.74-4.59,9.31c-9.54,3.5-19.14,6.82-28.58,10.57
				c-1.28,0.51-2.33,0.76-3.22,0.76c-2.15,0-3.33-1.49-4.36-4.51c-4.43-12.91-9.43-25.63-13.86-38.54
				c-1.17-3.42-2.42-5.05-5.25-5.05c-0.84,0-1.81,0.14-2.96,0.42c-15.53,3.78-30.69,5.66-45.5,5.66
				c-37.02,0-71.81-11.72-104.42-34.63c-8.13-5.72-13.94-12.68-12.55-23.25c1.56-11.83,11.03-19.19,21.35-19.19
				c4.7,0,9.58,1.53,13.96,4.86c16.45,12.51,34.57,21.22,54.8,25.49c9.29,1.96,18.58,2.91,27.86,2.91c10.21,0,20.41-1.14,30.61-3.33
				c3.24-0.69,4.55-1.86,3.21-5.47c-8.37-22.65-16.64-45.33-24.72-68.09c-1.25-3.52-3.43-3.78-6.21-3.78c-0.26,0-0.52,0-0.79,0
				c-0.17,0-0.34,0-0.51,0c-23.71,0-43.9-13.59-51.74-34.77c-10.2-27.56,3.36-57.89,30.73-68.72c4.67-1.85,6.52-5.89,4.96-10.54
				c-0.51-1.51-1.54-1.95-2.83-1.95c-0.08,0-0.16,0-0.24,0.01c-0.11,0-0.21,0.01-0.31,0.01c-2.92,0-3.57-1.77-3.56-4.43
				c0.06-12.66-0.15-25.33,0.11-37.98c0.18-8.61,6.78-14.89,15.44-15.25C127.86,15.62,129.56,15.59,131.27,15.59 M132.05,166.85
				c0,0,0.01,0,0.01,0c17.67-0.01,31.54-13.7,31.62-31.21c0.08-16.99-14.06-31.22-31.13-31.35c-0.08,0-0.16,0-0.23,0
				c-17.31,0-31.17,13.9-31.21,31.34C101.08,152.9,114.9,166.85,132.05,166.85 M131.27,10.59c-1.95,0-3.69,0.03-5.32,0.1
				c-11.49,0.47-20,8.94-20.23,20.14c-0.17,8.06-0.14,16.23-0.12,24.13c0.01,4.57,0.03,9.3,0.01,13.93c-0.01,2,0.23,4.91,2.44,7.13
				c0.93,0.94,2.53,2.03,5.06,2.28c0.05,1.33-0.71,2.23-2.35,2.88c-14.46,5.72-25.89,16.62-32.18,30.69
				c-6.29,14.07-6.79,29.85-1.4,44.41c8.55,23.1,30.7,38.03,56.43,38.03l0.55,0c0.28,0,0.52,0,0.75,0c0.7,0,1.1,0.02,1.33,0.05
				c0.05,0.09,0.1,0.22,0.17,0.4c7.21,20.3,14.96,41.66,24.38,67.16c-9.7,2.02-19.37,3.05-28.77,3.05c-9.01,0-18.04-0.94-26.83-2.8
				c-19.09-4.03-36.36-12.07-52.81-24.58c-5.06-3.85-10.94-5.88-16.99-5.88c-13.45,0-24.51,9.9-26.31,23.54
				c-1.91,14.53,7.44,22.94,14.63,28c33.56,23.59,69.66,35.54,107.3,35.54c15.18,0,30.89-1.95,46.68-5.8
				c0.79-0.19,1.3-0.26,1.61-0.28c0.15,0.27,0.38,0.78,0.69,1.67c2.23,6.51,4.64,13.06,6.97,19.38c2.31,6.27,4.69,12.76,6.89,19.16
				c2.71,7.89,7.51,7.89,9.09,7.89c1.52,0,3.18-0.36,5.06-1.12c6.58-2.61,13.38-5.07,19.97-7.45c2.83-1.02,5.66-2.04,8.49-3.08
				c4.29-1.58,7.13-2.62,8.59-5.57c1.53-3.09,0.46-6.05-1.03-10.14l-7.8-21.44c-17.04-46.83-34.66-95.25-52.08-142.84
				c-0.99-2.7-0.9-4.36,0.35-6.82c6.76-13.31,8.39-28.26,4.6-42.1c-3.78-13.79-12.77-25.87-25.32-34.01
				c-3.69-2.4-7.59-4.32-11.58-5.71c0.01-0.31,0.03-0.68,0.04-0.96c0.02-0.44,0.05-0.9,0.06-1.4c2.8-0.35,5-1.9,6.11-4.36
				c0.84-1.86,0.85-3.78,0.86-5.19c0.02-4.43,0.01-8.85,0.01-13.28l0-5.24v-4.85c0-0.23,0-0.46,0-0.69
				c0.03-4.12,0.06-8.37-0.06-12.6c-0.35-12.12-9.37-21.08-21.44-21.32C135.44,10.63,133.37,10.59,131.27,10.59L131.27,10.59z
				 M132.05,166.85v-5c-6.92,0-13.41-2.69-18.3-7.59c-4.94-4.95-7.65-11.56-7.64-18.62c0.01-7.1,2.74-13.74,7.67-18.69
				c4.92-4.94,11.5-7.66,18.54-7.66l0.2,0c14.25,0.1,26.23,12.16,26.17,26.33c-0.07,14.7-11.76,26.23-26.63,26.23L132.05,166.85
				L132.05,166.85z"/>
		</g>
		<g>
			<path d="M100.93,252.93c-0.86,0-1.79-0.15-2.87-0.47c-11.31-3.34-22.02-8.28-32.74-15.09c-3.55-2.26-4.56-5.29-3.08-9.26
				c5.29-14.22,10.37-28.31,15.54-42.7c0.38-1.05,1.52-4.24,4.53-4.24c1.76,0,3.18,1.18,4.09,2.06
				c8.34,8.08,18.33,13.51,30.55,16.58c0.17,0.04,0.35,0.08,0.53,0.12c1.24,0.25,5.01,1.03,4.73,5.44l-0.02,0.3l-0.28,0.91
				c-0.17,0.56-0.35,1.16-0.56,1.74c-1.36,3.74-2.73,7.48-4.1,11.21c-3.38,9.24-6.88,18.79-10.19,28.22
				C106.61,249.04,105.24,252.93,100.93,252.93z"/>
			<path class="st0" d="M82.31,183.67c0.63,0,1.39,0.43,2.35,1.36c8.95,8.68,19.63,14.18,31.68,17.21c1.47,0.37,3.55,0.37,3.38,2.98
				c-0.21,0.67-0.43,1.48-0.72,2.26c-4.78,13.15-9.67,26.26-14.3,39.46c-0.85,2.41-1.93,3.5-3.77,3.5c-0.62,0-1.34-0.13-2.16-0.37
				c-11.44-3.38-22.07-8.42-32.11-14.81c-2.49-1.59-3.15-3.38-2.08-6.28c5.28-14.2,10.42-28.46,15.55-42.73
				C80.73,184.61,81.38,183.67,82.31,183.67 M82.31,178.67L82.31,178.67c-2.17,0-5.13,1.02-6.88,5.9
				c-5.17,14.38-10.24,28.46-15.53,42.67c-1.87,5.03-0.42,9.38,4.08,12.24c10.92,6.94,21.84,11.98,33.38,15.38
				c1.3,0.39,2.47,0.57,3.57,0.57c5.03,0,7.39-3.72,8.49-6.84c3.31-9.41,6.8-18.95,10.18-28.17c1.37-3.74,2.74-7.48,4.1-11.23
				c0.25-0.67,0.44-1.31,0.61-1.87c0.06-0.21,0.12-0.4,0.18-0.59l0.18-0.58l0.04-0.61c0.16-2.46-0.51-6.78-6.73-8.05
				c-0.15-0.03-0.29-0.06-0.42-0.09c-11.78-2.96-21.4-8.18-29.41-15.95C87.44,180.75,85.29,178.67,82.31,178.67L82.31,178.67z"/>
		</g>
		<g>
			<path d="M62.7,358.46c-0.94,0-1.95-0.21-3.08-0.63c-10.14-3.8-21.02-7.76-33.27-12.1c-2.05-0.73-3.38-1.79-4.06-3.23
				c-0.91-1.95-0.35-3.96,0.15-5.31c2.16-5.82,4.31-11.76,6.39-17.51c1.56-4.33,3.13-8.66,4.72-12.98c0.05-0.13,0.09-0.26,0.13-0.39
				c0.42-1.23,1.39-4.1,4.95-4.1c0.21,0,0.43,0.01,0.66,0.03l0.47,0.05l0.88,0.45c0.47,0.23,1.02,0.51,1.57,0.81
				c10.32,5.58,20.99,10.08,31.7,13.39c1.56,0.48,3.76,1.37,4.79,3.49c1.02,2.09,0.41,4.32-0.24,6.03
				c-3.18,8.37-6.44,17.24-9.99,27.13C67.31,356.82,65.37,358.46,62.7,358.46z"/>
			<path class="st0" d="M38.63,304.71c0.13,0,0.27,0.01,0.41,0.02c0.51,0.26,1.25,0.62,1.98,1.01
				c10.28,5.56,20.99,10.14,32.15,13.58c3.72,1.15,4.21,2.95,2.96,6.24c-3.43,9.02-6.75,18.09-10.01,27.18
				c-0.76,2.11-1.74,3.22-3.42,3.22c-0.63,0-1.36-0.16-2.21-0.47c-11.06-4.15-22.18-8.17-33.31-12.12c-2.87-1.02-3.42-2.56-2.4-5.32
				c3.77-10.14,7.38-20.34,11.11-30.49C36.35,306.32,36.62,304.71,38.63,304.71 M38.63,299.71L38.63,299.71
				c-3.55,0-6.02,1.95-7.32,5.8c-0.04,0.11-0.07,0.22-0.11,0.33c-1.59,4.33-3.18,8.72-4.72,12.98c-2.08,5.74-4.22,11.68-6.38,17.5
				c-0.38,1.02-1.53,4.12-0.08,7.24c0.96,2.06,2.81,3.58,5.49,4.53c12.23,4.34,23.1,8.29,33.23,12.09c1.42,0.53,2.72,0.79,3.96,0.79
				c2.64,0,6.19-1.13,8.13-6.53c3.54-9.89,6.81-18.75,9.97-27.09c0.76-2.01,1.61-5.02,0.15-8.01c-1.63-3.34-5.15-4.42-6.3-4.78
				c-10.55-3.26-21.07-7.7-31.25-13.2c-0.56-0.3-1.13-0.59-1.61-0.83l-0.46-0.23l-0.85-0.43l-0.95-0.09
				C39.23,299.72,38.92,299.71,38.63,299.71L38.63,299.71z"/>
		</g>
		<g>
			<path d="M240.03,404.57c-1.67,0-2.91-1.22-3.81-2.11c-0.12-0.12-0.24-0.24-0.35-0.34c-4.45-4.14-8.92-8.39-13.25-12.49
				c-2.25-2.13-4.49-4.26-6.74-6.38c-3.14-2.97-6.31-5.91-9.48-8.84c-0.7-0.65-2.82-2.61-2.31-5.14c0.33-1.65,1.64-2.9,3.9-3.71
				c11.27-4.08,22.54-8.16,33.8-12.26c0.96-0.35,1.8-0.52,2.58-0.52c1.6,0,2.58,0.71,3.13,1.3c0.96,1.04,1.34,2.51,1.17,4.5
				c-0.46,3.89-0.9,7.7-1.34,11.5c-1.15,9.93-2.34,20.19-3.65,30.27C243.19,404.15,240.97,404.57,240.03,404.57z"/>
			<path class="st0" d="M244.37,355.26c1.43,0,1.98,1.09,1.81,3.09c-1.64,13.92-3.17,27.81-4.98,41.66
				c-0.2,1.54-0.64,2.06-1.17,2.06c-0.79,0-1.77-1.15-2.45-1.78c-6.7-6.24-13.32-12.58-19.98-18.87c-3.15-2.97-6.32-5.92-9.5-8.86
				c-2.1-1.95-2.36-3.55,0.74-4.67c11.27-4.08,22.54-8.16,33.81-12.27C243.33,355.38,243.9,355.26,244.37,355.26 M244.37,350.26
				c-1.08,0-2.2,0.22-3.43,0.67c-11.26,4.1-22.53,8.18-33.8,12.26c-3.9,1.41-5.14,3.81-5.5,5.57c-0.52,2.59,0.51,5.11,3.06,7.48
				c2.86,2.65,6.19,5.74,9.46,8.82c2.25,2.12,4.49,4.25,6.73,6.37c4.34,4.11,8.82,8.37,13.28,12.52c0.09,0.08,0.19,0.18,0.29,0.28
				c1.07,1.06,2.86,2.84,5.57,2.84c0.88,0,5.33-0.31,6.13-6.41c1.32-10.09,2.5-20.36,3.65-30.29c0.44-3.81,0.88-7.62,1.33-11.43
				l0.01-0.08l0.01-0.08c0.23-2.68-0.38-4.84-1.82-6.4C248.09,351.01,246.33,350.26,244.37,350.26L244.37,350.26z"/>
		</g>
		<g>
			<path d="M25.38,404.11c-1.58,0-3.58-1.15-4.01-4.38c-0.33-2.48-0.61-4.99-0.87-7.42c-0.11-1.01-0.22-2.03-0.34-3.04
				c-0.32-3.34,0.75-6.22,1.69-8.77c0.19-0.51,0.37-1.01,0.55-1.52c0.75-2.18,1.57-4.36,2.36-6.46c0.54-1.45,1.09-2.9,1.61-4.35
				c2.32-6.44,3.86-10.7,8.54-10.7c2.41,0,5.2,1.28,9.55,3.36c3.53,1.69,4.66,4.31,3.36,7.8c-1.04,2.77-2.05,5.62-3.02,8.38
				c-1.65,4.67-3.36,9.51-5.3,14.19c-1.64,3.96-4.75,6.42-7.75,8.8c-1.15,0.91-2.23,1.77-3.2,2.69
				C27.53,403.63,26.47,404.11,25.38,404.11z"/>
			<path class="st0" d="M34.9,359.98c1.83,0,4.37,1.15,8.47,3.11c2.21,1.06,3,2.25,2.1,4.66c-2.81,7.48-5.24,15.11-8.29,22.49
				c-1.97,4.75-6.76,7.23-10.36,10.63c-0.55,0.52-1.02,0.74-1.43,0.74c-0.85,0-1.37-0.97-1.53-2.21c-0.46-3.46-0.81-6.94-1.21-10.41
				c-0.31-3.3,1.09-6.22,2.11-9.19c1.25-3.62,2.66-7.18,3.95-10.79C31.03,362.6,32.14,359.98,34.9,359.98 M34.9,354.98L34.9,354.98
				c-6.44,0-8.5,5.72-10.89,12.35c-0.52,1.44-1.06,2.88-1.6,4.32c-0.8,2.13-1.62,4.32-2.38,6.54c-0.17,0.49-0.35,0.98-0.53,1.47
				c-0.98,2.66-2.2,5.97-1.83,9.82l0,0.05l0.01,0.05c0.12,1.01,0.23,2.02,0.34,3.03c0.27,2.44,0.55,4.97,0.88,7.47
				c0.6,4.52,3.69,6.54,6.49,6.54c1.2,0,3.02-0.36,4.86-2.1c0.9-0.85,1.94-1.67,3.04-2.55c3.1-2.46,6.62-5.25,8.51-9.81
				c1.97-4.74,3.69-9.61,5.35-14.31c0.97-2.75,1.98-5.58,3.01-8.33c0.83-2.22,2.05-7.74-4.62-10.93
				C40.86,356.35,37.85,354.98,34.9,354.98L34.9,354.98z"/>
		</g>
	</g>
</g>
<g>
	<path d="M338.4,80.2H438c18.13,0,33.06,2.47,44.8,7.4c11.73,4.94,21,11.2,27.8,18.8c6.8,7.6,11.53,16.14,14.2,25.6
		c2.66,9.47,4,18.6,4,27.4s-1.34,17.94-4,27.4c-2.67,9.47-7.4,18-14.2,25.6c-6.8,7.6-16.07,13.87-27.8,18.8
		c-11.74,4.94-26.67,7.4-44.8,7.4h-61.2v124.8h-38.4V80.2z M376.8,205h50.4c7.46,0,14.86-0.6,22.2-1.8c7.33-1.2,13.86-3.4,19.6-6.6
		c5.73-3.2,10.33-7.8,13.8-13.8c3.46-6,5.2-13.8,5.2-23.4s-1.74-17.4-5.2-23.4c-3.47-6-8.07-10.6-13.8-13.8
		c-5.74-3.2-12.27-5.4-19.6-6.6c-7.34-1.2-14.74-1.8-22.2-1.8h-50.4V205z"/>
	<path d="M560.79,105.8c0-7.2,2.6-13.4,7.8-18.6c5.2-5.2,11.4-7.8,18.6-7.8s13.4,2.6,18.6,7.8c5.2,5.2,7.8,11.4,7.8,18.6
		c0,7.2-2.6,13.4-7.8,18.6c-5.2,5.2-11.4,7.8-18.6,7.8s-13.4-2.6-18.6-7.8C563.4,119.2,560.79,113,560.79,105.8z M569.2,173.8h36
		v189.6h-36V173.8z"/>
	<path d="M639.59,173.8h41.6l56.8,145.2l54.4-145.2h38.4l-74.4,189.6h-39.6L639.59,173.8z"/>
	<path d="M853.19,268.6c0-13.86,2.6-26.8,7.8-38.8s12.33-22.53,21.4-31.6c9.06-9.06,19.73-16.2,32-21.4
		c12.26-5.2,25.46-7.8,39.6-7.8c14.13,0,27.33,2.6,39.6,7.8c12.26,5.2,22.93,12.34,32,21.4c9.06,9.07,16.2,19.6,21.4,31.6
		s7.8,24.94,7.8,38.8c0,13.87-2.6,26.87-7.8,39c-5.2,12.14-12.34,22.67-21.4,31.6c-9.07,8.94-19.74,16-32,21.2
		c-12.27,5.2-25.47,7.8-39.6,7.8c-14.14,0-27.34-2.6-39.6-7.8c-12.27-5.2-22.94-12.26-32-21.2c-9.07-8.93-16.2-19.46-21.4-31.6
		C855.79,295.47,853.19,282.47,853.19,268.6z M891.59,268.6c0,9.6,1.46,18.47,4.4,26.6c2.93,8.14,7.06,15.07,12.4,20.8
		c5.33,5.74,11.86,10.27,19.6,13.6c7.73,3.34,16.4,5,26,5c9.6,0,18.26-1.66,26-5c7.73-3.33,14.26-7.86,19.6-13.6
		c5.33-5.73,9.46-12.66,12.4-20.8c2.93-8.13,4.4-17,4.4-26.6c0-9.6-1.47-18.46-4.4-26.6c-2.94-8.13-7.07-15.06-12.4-20.8
		c-5.34-5.73-11.87-10.26-19.6-13.6c-7.74-3.33-16.4-5-26-5c-9.6,0-18.27,1.67-26,5c-7.74,3.34-14.27,7.87-19.6,13.6
		c-5.34,5.74-9.47,12.67-12.4,20.8C893.05,250.14,891.59,259,891.59,268.6z"/>
	<path d="M1201.59,205h-51.6v86c0,5.34,0.13,10.6,0.4,15.8c0.26,5.2,1.26,9.87,3,14c1.73,4.14,4.4,7.47,8,10
		c3.6,2.54,8.86,3.8,15.8,3.8c4.26,0,8.66-0.4,13.2-1.2c4.53-0.8,8.66-2.26,12.4-4.4v32.8c-4.27,2.4-9.8,4.06-16.6,5
		c-6.8,0.93-12.07,1.4-15.8,1.4c-13.87,0-24.6-1.94-32.2-5.8c-7.6-3.86-13.2-8.86-16.8-15c-3.6-6.13-5.74-13-6.4-20.6
		c-0.67-7.6-1-15.26-1-23V205h-41.6v-31.2h41.6v-53.2h36v53.2h51.6V205z"/>
</g>
</svg>
